Coordinates
version=1
nRows=17
nColumns=40
inDegrees=yes

Units are S.I. units (second, meters, Newtons, ...)
Angles are in degrees.

endheader
time	pelvis_tilt	pelvis_list	pelvis_rotation	pelvis_tx	pelvis_ty	pelvis_tz	hip_flexion_r	hip_adduction_r	hip_rotation_r	knee_angle_r	knee_angle_r_beta	ankle_angle_r	subtalar_angle_r	mtp_angle_r	hip_flexion_l	hip_adduction_l	hip_rotation_l	knee_angle_l	knee_angle_l_beta	ankle_angle_l	subtalar_angle_l	mtp_angle_l	lumbar_extension	lumbar_bending	lumbar_rotation	arm_flex_r	arm_add_r	arm_rot_r	elbow_flex_r	pro_sup_r	wrist_flex_r	wrist_dev_r	arm_flex_l	arm_add_l	arm_rot_l	elbow_flex_l	pro_sup_l	wrist_flex_l	wrist_dev_l
     34.09000000	     -2.56658070	     -3.42937372	     -3.03177383	      1.00963586	      0.93589745	      0.45073090	     35.31030751	    -11.21964606	    -11.63508655	     51.16240061	     51.16240061	      4.32527493	    -13.56363684	      2.10701701	     10.82611559	     -3.82929588	    -15.35217230	     17.43286987	     17.43286987	     12.87807315	     -1.34806240	     -7.80266791	    -10.32696240	     -0.61003254	      0.00844741	     -5.61037978	    -15.96382990	     -4.89065826	     58.58753766	     45.88916019	      0.00000000	      0.00000000	     22.84291227	    -17.93191931	     -1.37954204	     34.99174785	     46.52280474	      0.00000000	      0.00000000
     34.10171429	     -2.50634146	     -3.35228786	     -3.22171148	      1.00850497	      0.93595699	      0.45100565	     35.05566152	    -10.85914079	    -11.70689199	     47.29249076	     47.29249076	      3.51340397	    -12.59769513	      1.71298052	     10.00000527	     -3.67103108	    -15.53060078	     16.97307317	     16.97307317	     13.09103930	     -1.22786468	     -8.08047355	    -10.34004169	     -0.80157083	     -0.07170891	     -6.57802950	    -15.82982852	     -5.60895063	     53.48096415	     46.05333680	      0.00000000	      0.00000000	     23.88925768	    -18.26081203	     -2.27696894	     36.20125789	     46.64681613	      0.00000000	      0.00000000
     34.11342857	     -2.44294819	     -3.27886660	     -3.41552051	      1.00743840	      0.93598118	      0.45139076	     34.66405300	    -10.44725477	    -11.84057584	     43.33687834	     43.33687834	      2.84485209	    -11.31570266	      1.64931252	      9.16655885	     -3.52304550	    -15.75430059	     16.52199975	     16.52199975	     13.32231822	     -1.06758310	     -8.32419110	    -10.37758494	     -0.97466555	     -0.02778976	     -7.60397544	    -15.82825699	     -6.13803885	     48.69787167	     46.20409509	      0.00000000	      0.00000000	     24.88491505	    -18.48856064	     -3.04061198	     37.54540440	     46.74865242	      0.00000000	      0.00000000
     34.12514286	     -2.42939528	     -3.23892866	     -3.58549283	      1.00642348	      0.93588673	      0.45184909	     34.18318451	     -9.94295420	    -12.02112032	     39.33506592	     39.33506592	      2.42117952	     -9.75414371	      2.21112198	      8.41513697	     -3.41848658	    -15.89211993	     16.12617657	     16.12617657	     13.61680243	     -0.92331043	     -8.41082743	    -10.34976994	     -1.02885387	      0.16458030	     -9.58533183	    -16.18534767	     -6.12893068	     46.62724214	     46.26098916	      0.00000000	      0.00000000	     25.93137182	    -18.63912375	     -3.29751564	     38.61086196	     46.79605763	      0.00000000	      0.00000000
     34.13685714	     -2.30589593	     -3.18958545	     -3.78123257	      1.00555878	      0.93587554	      0.45247715	     33.48719134	     -9.43202771	    -12.32054685	     35.41022513	     35.41022513	      2.16113565	     -7.80309202	      2.68255173	      7.46493903	     -3.28779848	    -16.09714342	     15.61114534	     15.61114534	     13.89738662	     -0.70298742	     -8.53795423	    -10.49585486	     -1.15233788	      0.67809313	    -11.26270237	    -16.41885383	     -6.20143178	     43.45250609	     46.36333670	      0.00000000	      0.00000000	     27.00706191	    -18.52163932	     -3.63946781	     40.09847454	     46.85458301	      0.00000000	      0.00000000
     34.14857143	     -2.30440779	     -3.02720493	     -3.96403690	      1.00476466	      0.93563005	      0.45322502	     32.91724003	     -8.98775068	    -12.55605098	     31.73457322	     31.73457322	      1.97773410	     -5.71335685	      3.28329247	      6.62242908	     -3.02293172	    -16.24935556	     15.00671271	     15.00671271	     13.98307115	     -0.61271820	     -8.95394796	    -10.36357514	     -1.44933658	      0.18919390	    -10.53982001	    -15.98082721	     -7.30798395	     35.94933229	     46.66923451	      0.00000000	      0.00000000	     26.92100622	    -19.01833789	     -4.97409211	     42.80630151	     46.99849309	      0.00000000	      0.00000000
     34.16028571	     -2.16587845	     -3.03097411	     -4.10681393	      1.00409040	      0.93545602	      0.45408327	     32.08087567	     -8.35107359	    -12.89182990	     28.24104440	     28.24104440	      1.91382079	     -3.64676705	      4.08521631	      5.71110751	     -2.96341211	    -16.33687758	     14.61786919	     14.61786919	     14.30552516	     -0.52560504	     -9.06794585	    -10.48576513	     -1.48461978	      0.50894155	    -12.30449424	    -16.19246789	     -7.39151316	     34.27263940	     46.71722516	      0.00000000	      0.00000000	     27.72387267	    -18.98333932	     -5.32805989	     44.25439355	     47.05313221	      0.00000000	      0.00000000
     34.17200000	     -2.08479425	     -2.88125275	     -4.23965502	      1.00359953	      0.93506907	      0.45496730	     31.42514569	     -7.93819855	    -13.31765406	     25.37665009	     25.37665009	      2.31262407	     -1.18526748	      5.58598948	      4.76050290	     -2.70030536	    -16.43850655	     14.01221440	     14.01221440	     14.51863583	     -0.37804102	     -9.31512234	    -10.49317618	     -1.70283476	      0.72167009	    -13.42476091	    -16.17511262	     -7.74690832	     31.24654922	     46.82849045	      0.00000000	      0.00000000	     27.95320346	    -18.92644178	     -6.04927797	     46.93006634	     47.14034809	      0.00000000	      0.00000000
     34.18371429	     -1.97242965	     -2.94345750	     -4.31019159	      1.00311156	      0.93467247	      0.45603181	     30.60172082	     -7.20363407	    -13.56043840	     22.69609026	     22.69609026	      2.42578656	      0.44663733	      6.49668663	      3.93887576	     -2.72957989	    -16.40997286	     13.75935102	     13.75935102	     14.86222565	     -0.39508631	     -9.44721951	    -10.53367183	     -1.63484917	      0.79443649	    -14.86070725	    -16.29765256	     -7.81560873	     30.00264448	     46.86518051	      0.00000000	      0.00000000	     28.44256566	    -18.98770664	     -6.31386890	     48.26935254	     47.17938920	      0.00000000	      0.00000000
     34.19542857	     -1.84027972	     -2.92378709	     -4.38732327	      1.00280994	      0.93418485	      0.45719664	     29.85890222	     -6.62292811	    -13.88132548	     20.67906184	     20.67906184	      2.70103016	      2.20453801	      7.38993903	      3.02810373	     -2.65629084	    -16.43311312	     13.38705808	     13.38705808	     15.19792701	     -0.31109057	     -9.58688350	    -10.58462734	     -1.71865775	      1.08904492	    -16.34990848	    -16.31098656	     -7.85566273	     28.69631296	     46.90376925	      0.00000000	      0.00000000	     28.86965061	    -18.82004984	     -6.57394248	     50.08243841	     47.22485515	      0.00000000	      0.00000000
     34.20714286	     -1.62679180	     -2.78466625	     -4.44359763	      1.00276349	      0.93358134	      0.45825870	     29.30327292	     -6.32483528	    -14.34063016	     19.71902147	     19.71902147	      3.59873625	      4.08515929	      8.93423710	      1.94280591	     -2.40303441	    -16.43678146	     12.84874766	     12.84874766	     15.46500889	     -0.22872354	     -9.80983718	    -10.75760234	     -1.87876158	      1.27343608	    -17.54760486	    -16.26475400	     -8.11030198	     27.04017075	     46.96718465	      0.00000000	      0.00000000	     28.49845935	    -18.78164998	     -7.12732511	     53.82877157	     47.30819350	      0.00000000	      0.00000000
     34.21885714	     -1.58052072	     -2.80496998	     -4.43639548	      1.00266344	      0.93284378	      0.45950358	     28.78371687	     -5.76846635	    -14.49018915	     18.94339901	     18.94339901	      4.37701069	      5.09081191	     10.86694948	      1.16709121	     -2.38558452	    -16.22045327	     12.55517549	     12.55517549	     15.71588461	     -0.41728609	    -10.07982758	    -10.72710483	     -1.88711126	      0.51103635	    -18.07571281	    -16.36743088	     -8.57899228	     25.91716543	     47.01080196	      0.00000000	      0.00000000	     27.18136104	    -19.41583070	     -8.09046693	     58.05778434	     47.42021097	      0.00000000	      0.00000000
     34.23057143	     -1.46518413	     -2.81739484	     -4.41620498	      1.00279397	      0.93205291	      0.46079829	     28.13110348	     -5.23636897	    -14.57686819	     18.47954693	     18.47954693	      4.59668304	      5.76734100	     10.92573429	      0.32265442	     -2.38596826	    -16.17089103	     12.32762636	     12.32762636	     16.14957195	     -0.32934549	    -10.13908996	    -10.69487736	     -1.84416424	      0.86876511	    -19.52716816	    -16.30177750	     -8.56583890	     25.32210554	     47.01450686	      0.00000000	      0.00000000	     27.50621837	    -19.05534176	     -8.23834937	     59.58162658	     47.45500578	      0.00000000	      0.00000000
     34.24228571	     -1.56163977	     -2.74756896	     -4.34225153	      1.00291345	      0.93077216	      0.46213562	     27.79217872	     -4.80406115	    -14.39974224	     18.53323646	     18.53323646	      4.89301636	      5.95723240	     10.81482319	     -0.17116967	     -2.35540844	    -16.03260010	     12.30470490	     12.30470490	     16.61885182	     -0.33317233	    -10.28375629	    -10.36063638	     -1.91874020	      0.55941244	    -20.43592163	    -16.33427758	     -8.59807401	     25.02222268	     47.02027294	      0.00000000	      0.00000000	     27.68803477	    -19.17156131	     -8.31743633	     59.99631447	     47.46869610	      0.00000000	      0.00000000
     34.25400000	     -1.33213132	     -2.72937368	     -4.28266205	      1.00349062	      0.92995970	      0.46349228	     26.95787835	     -4.39042748	    -14.41003736	     18.67436556	     18.67436556	      4.64558231	      6.31918479	      9.37368755	     -1.21896105	     -2.32423102	    -16.04577573	     11.99543212	     11.99543212	     17.20054846	      0.08576756	     -9.79940950	    -10.59631233	     -1.94845856	      0.58161919	    -22.13593097	    -16.30488489	     -9.02133668	     26.28220482	     46.94744509	      0.00000000	      0.00000000	     25.98297883	    -19.25251725	     -8.80829508	     66.09955128	     47.58187826	      0.00000000	      0.00000000
     34.26571429	     -1.26566964	     -2.73199830	     -4.18378286	      1.00401288	      0.92883500	      0.46487906	     26.33179941	     -3.95088386	    -14.13025617	     19.10307712	     19.10307712	      4.73543306	      6.19355830	      8.86086289	     -1.97345827	     -2.36195269	    -15.93599881	     11.87796150	     11.87796150	     17.67665943	      0.21727019	     -9.72756588	    -10.48679648	     -1.90386952	      0.86914659	    -23.26237457	    -16.17189595	     -8.99445833	     26.06030145	     46.93625650	      0.00000000	      0.00000000	     25.94869462	    -18.81209407	     -8.92253356	     67.65578482	     47.61498997	      0.00000000	      0.00000000
     34.27742857	     -1.28250423	     -2.69043000	     -4.02352302	      1.00465049	      0.92760205	      0.46626832	     25.61636112	     -3.53424840	    -13.72383404	     19.27123475	     19.27123475	      4.15916897	      5.76513516	      6.78418448	     -2.58674997	     -2.40088739	    -15.87472808	     11.89155724	     11.89155724	     18.44658201	      0.62620532	     -8.97377299	    -10.36162615	     -1.90976353	      0.37678526	    -24.29308427	    -16.21478135	     -9.25410120	     27.27505477	     46.86279872	      0.00000000	      0.00000000	     24.45088965	    -19.12952551	     -9.37041107	     71.63064041	     47.70421451	      0.00000000	      0.00000000
